<svg xmlns="http://www.w3.org/2000/svg" xmlns:xlink="http://www.w3.org/1999/xlink" xmlns:lucid="lucid" width="746" height="516"><g transform="translate(-494 -220)" lucid:page-tab-id="0_0"><path d="M0 0h1760v1360H0z" fill="#fff"/><path d="M840.4 328H939" stroke="#333" fill="none"/><path d="M821.22 318l20 10-20 10M821.22 328h20" stroke="#333" fill="#fff"/><path d="M939.5 328.5h-.5v-1h.5z" fill="#333"/><path d="M539.5 328H512c-6.63 0-12 5.37-12 12v316c0 6.63 5.37 12 12 12h27.5" stroke="#333" fill="none"/><path d="M540 328.5h-.5v-1h.5zM540 668.5h-.5v-1h.5z" fill="#333"/><path d="M540.5 285c0-2.76 2.24-5 5-5h270c2.76 0 5 2.24 5 5v118c0 2.76-2.24 5-5 5h-270c-2.76 0-5-2.24-5-5z" fill="#fff"/><path d="M540.5 240h280v40h-280z" fill="#ccc"/><path d="M540.5 245c0-2.76 2.24-5 5-5h270c2.76 0 5 2.24 5 5v158c0 2.76-2.24 5-5 5h-270c-2.76 0-5-2.24-5-5zM540.5 280h280M680.5 280v128" stroke="#333" fill="none"/><use xlink:href="#a" transform="matrix(1,0,0,1,550.5,240) translate(0 23.6)"/><use xlink:href="#b" transform="matrix(1,0,0,1,545.5,282.5) translate(0 17.1)"/><use xlink:href="#c" transform="matrix(1,0,0,1,685.5,282.5) translate(0 17.1)"/><use xlink:href="#d" transform="matrix(1,0,0,1,545.5,314.5) translate(0 17.1)"/><use xlink:href="#c" transform="matrix(1,0,0,1,685.5,314.5) translate(0 17.1)"/><use xlink:href="#e" transform="matrix(1,0,0,1,545.5,346.5) translate(0 17.1)"/><use xlink:href="#c" transform="matrix(1,0,0,1,685.5,346.5) translate(0 17.1)"/><use xlink:href="#f" transform="matrix(1,0,0,1,545.5,378.5) translate(0 17.1)"/><use xlink:href="#g" transform="matrix(1,0,0,1,685.5,378.5) translate(0 17.1)"/><path d="M940 285c0-2.76 2.24-5 5-5h270c2.76 0 5 2.24 5 5v150c0 2.76-2.24 5-5 5H945c-2.76 0-5-2.24-5-5z" fill="#fff"/><path d="M940 240h280v40H940z" fill="#ccc"/><path d="M940 245c0-2.76 2.24-5 5-5h270c2.76 0 5 2.24 5 5v190c0 2.76-2.24 5-5 5H945c-2.76 0-5-2.24-5-5zM940 280h280M1080 280v160" stroke="#333" fill="none"/><use xlink:href="#h" transform="matrix(1,0,0,1,950,240) translate(0 23.6)"/><use xlink:href="#b" transform="matrix(1,0,0,1,945,282.5) translate(0 17.1)"/><use xlink:href="#c" transform="matrix(1,0,0,1,1085,282.5) translate(0 17.1)"/><use xlink:href="#i" transform="matrix(1,0,0,1,945,314.5) translate(0 17.1)"/><use xlink:href="#c" transform="matrix(1,0,0,1,1085,314.5) translate(0 17.1)"/><use xlink:href="#j" transform="matrix(1,0,0,1,945,346.5) translate(0 17.1)"/><use xlink:href="#k" transform="matrix(1,0,0,1,1085,346.5) translate(0 17.1)"/><use xlink:href="#l" transform="matrix(1,0,0,1,945,378.5) translate(0 17.1)"/><use xlink:href="#k" transform="matrix(1,0,0,1,1085,378.5) translate(0 17.1)"/><use xlink:href="#m" transform="matrix(1,0,0,1,945,410.5) translate(0 17.1)"/><use xlink:href="#k" transform="matrix(1,0,0,1,1085,410.5) translate(0 17.1)"/><path d="M540.5 625c0-2.76 2.24-5 5-5h270c2.76 0 5 2.24 5 5v86c0 2.76-2.24 5-5 5h-270c-2.76 0-5-2.24-5-5z" fill="#fff"/><path d="M540.5 580h280v40h-280z" fill="#ccc"/><path d="M540.5 585c0-2.76 2.24-5 5-5h270c2.76 0 5 2.24 5 5v126c0 2.76-2.24 5-5 5h-270c-2.76 0-5-2.24-5-5zM540.5 620h280M678.78 620v96" stroke="#333" fill="none"/><use xlink:href="#n" transform="matrix(1,0,0,1,550.5,580) translate(0 23.6)"/><use xlink:href="#b" transform="matrix(1,0,0,1,545.5,622.5) translate(0 17.1)"/><use xlink:href="#c" transform="matrix(1,0,0,1,683.7798345758615,622.5) translate(0 17.1)"/><use xlink:href="#o" transform="matrix(1,0,0,1,545.5,654.5) translate(0 17.1)"/><use xlink:href="#g" transform="matrix(1,0,0,1,683.7798345758615,654.5) translate(0 17.1)"/><use xlink:href="#p" transform="matrix(1,0,0,1,545.5,686.5) translate(0 17.1)"/><use xlink:href="#g" transform="matrix(1,0,0,1,683.7798345758615,686.5) translate(0 17.1)"/><defs><path fill="#333" d="M133-28C103 26-5 8 13-77c13-62 24-115 90-117 29-1 46 15 56 35 2-12 6-24 8-34h31L144 75h-31zM45-64c-2 27 10 43 35 43 54-1 69-50 69-103 0-29-15-46-42-46-53-1-58 58-62 106" id="q"/><path fill="#333" d="M67 3c-93-2-31-127-26-193h32L48-50c-3 39 53 32 70 12 30-34 30-101 43-152h32L157 0h-30c1-10 6-24 4-33-14 20-29 37-64 36" id="r"/><path fill="#333" d="M111-194c62-3 86 47 72 106H45c-7 38 6 69 45 68 27-1 43-14 53-32l24 11C152-15 129 4 87 4 38 3 12-23 12-71c0-70 32-119 99-123zm44 81c14-66-71-72-95-28-4 8-8 17-11 28h106" id="s"/><path fill="#333" d="M55-144c13 50 104 24 104 88C159 21 15 23 1-39l26-10c6 40 102 42 102-4-13-50-104-23-104-87 0-71 143-71 148-8l-29 4c-5-35-85-37-89 0" id="t"/><path fill="#333" d="M51-54c-9 22 5 41 31 30L79-1C43 14 10-4 19-52l22-115H19l5-23h22l19-43h21l-9 43h35l-4 23H73" id="u"/><path fill="#333" d="M50-231l6-30h32l-6 30H50zM6 0l37-190h31L37 0H6" id="v"/><path fill="#333" d="M30-147c31-64 166-65 159 27C183-49 158 1 86 4 9 8 1-88 30-147zM88-20c53 0 68-48 68-100 0-31-11-51-44-50-52 1-68 46-68 97 0 32 13 53 44 53" id="w"/><path fill="#333" d="M67-158c22-48 132-52 116 29L158 0h-32l25-140c3-38-53-32-70-12C52-117 51-52 38 0H6l36-190h30" id="x"/><path fill="#333" d="M165-48c-4 18 1 34 23 27l-3 20c-29 8-62 0-52-35h-2C116-14 99 4 63 4 30 4 8-16 8-49c0-68 71-67 138-67 10-26 0-56-31-54-26 1-42 9-47 31l-32-5c8-67 160-71 144 15-5 28-9 54-15 81zM42-50c3 52 80 24 89-6 7-12 7-24 11-38-47 1-103-4-100 44" id="y"/><path fill="#333" d="M66-151c12-25 30-51 66-40l-6 26C45-176 58-65 38 0H6l36-190h30" id="z"/><path fill="#333" d="M-28 44V31h207v13H-28" id="A"/><path fill="#333" d="M188 0h-37l-8-164L71 0H34L18-190h31l8 164 75-164h34l8 164 74-164h31" id="B"/><g id="a"><use transform="matrix(0.05,0,0,0.05,0,0)" xlink:href="#q"/><use transform="matrix(0.05,0,0,0.05,10,0)" xlink:href="#r"/><use transform="matrix(0.05,0,0,0.05,20,0)" xlink:href="#s"/><use transform="matrix(0.05,0,0,0.05,30,0)" xlink:href="#t"/><use transform="matrix(0.05,0,0,0.05,39,0)" xlink:href="#u"/><use transform="matrix(0.05,0,0,0.05,44,0)" xlink:href="#v"/><use transform="matrix(0.05,0,0,0.05,47.95,0)" xlink:href="#w"/><use transform="matrix(0.05,0,0,0.05,57.95,0)" xlink:href="#x"/><use transform="matrix(0.05,0,0,0.05,67.95,0)" xlink:href="#x"/><use transform="matrix(0.05,0,0,0.05,77.95,0)" xlink:href="#y"/><use transform="matrix(0.05,0,0,0.05,87.95,0)" xlink:href="#v"/><use transform="matrix(0.05,0,0,0.05,91.9,0)" xlink:href="#z"/><use transform="matrix(0.05,0,0,0.05,97.85000000000001,0)" xlink:href="#s"/><use transform="matrix(0.05,0,0,0.05,107.85000000000001,0)" xlink:href="#A"/><use transform="matrix(0.05,0,0,0.05,117.85000000000001,0)" xlink:href="#y"/><use transform="matrix(0.05,0,0,0.05,127.85000000000001,0)" xlink:href="#x"/><use transform="matrix(0.05,0,0,0.05,137.85000000000002,0)" xlink:href="#t"/><use transform="matrix(0.05,0,0,0.05,146.85000000000002,0)" xlink:href="#B"/><use transform="matrix(0.05,0,0,0.05,159.8,0)" xlink:href="#s"/><use transform="matrix(0.05,0,0,0.05,169.8,0)" xlink:href="#z"/></g><path fill="#333" d="M133-28C103 26-5 8 13-77c13-62 24-115 90-117 29-1 46 15 56 35l19-102h32L160 0h-30zM45-64c-2 27 10 43 35 43 54-1 69-50 69-103 0-29-15-46-42-46-53-1-58 58-62 106" id="C"/><g id="b"><use transform="matrix(0.05,0,0,0.05,0,0)" xlink:href="#v"/><use transform="matrix(0.05,0,0,0.05,3.95,0)" xlink:href="#C"/></g><path fill="#333" d="M103-194c29 0 47 14 56 36 2-11 5-23 8-32h30L160-5C157 61 82 97 21 62 9 55 4 45 1 30l28-7c7 42 83 31 92-3 4-16 9-38 13-55-13 20-29 36-62 36-40 0-60-25-60-64 0-71 23-131 91-131zm4 24c-53 0-58 54-61 104-2 27 10 44 36 44 49 0 65-50 67-102 1-29-15-46-42-46" id="D"/><g id="c"><use transform="matrix(0.05,0,0,0.05,0,0)" xlink:href="#v"/><use transform="matrix(0.05,0,0,0.05,3.95,0)" xlink:href="#x"/><use transform="matrix(0.05,0,0,0.05,13.949999999999998,0)" xlink:href="#u"/><use transform="matrix(0.05,0,0,0.05,18.95,0)" xlink:href="#s"/><use transform="matrix(0.05,0,0,0.05,28.950000000000003,0)" xlink:href="#D"/><use transform="matrix(0.05,0,0,0.05,38.95,0)" xlink:href="#s"/><use transform="matrix(0.05,0,0,0.05,48.95,0)" xlink:href="#z"/></g><g id="d"><use transform="matrix(0.05,0,0,0.05,0,0)" xlink:href="#q"/><use transform="matrix(0.05,0,0,0.05,10,0)" xlink:href="#r"/><use transform="matrix(0.05,0,0,0.05,20,0)" xlink:href="#s"/><use transform="matrix(0.05,0,0,0.05,30,0)" xlink:href="#t"/><use transform="matrix(0.05,0,0,0.05,39,0)" xlink:href="#u"/><use transform="matrix(0.05,0,0,0.05,44,0)" xlink:href="#v"/><use transform="matrix(0.05,0,0,0.05,47.95,0)" xlink:href="#w"/><use transform="matrix(0.05,0,0,0.05,57.95,0)" xlink:href="#x"/><use transform="matrix(0.05,0,0,0.05,67.95,0)" xlink:href="#x"/><use transform="matrix(0.05,0,0,0.05,77.95,0)" xlink:href="#y"/><use transform="matrix(0.05,0,0,0.05,87.95,0)" xlink:href="#v"/><use transform="matrix(0.05,0,0,0.05,91.9,0)" xlink:href="#z"/><use transform="matrix(0.05,0,0,0.05,97.85000000000001,0)" xlink:href="#s"/><use transform="matrix(0.05,0,0,0.05,107.85000000000001,0)" xlink:href="#A"/><use transform="matrix(0.05,0,0,0.05,117.85000000000001,0)" xlink:href="#v"/><use transform="matrix(0.05,0,0,0.05,121.80000000000001,0)" xlink:href="#C"/></g><g id="e"><use transform="matrix(0.05,0,0,0.05,0,0)" xlink:href="#q"/><use transform="matrix(0.05,0,0,0.05,10,0)" xlink:href="#r"/><use transform="matrix(0.05,0,0,0.05,20,0)" xlink:href="#s"/><use transform="matrix(0.05,0,0,0.05,30,0)" xlink:href="#t"/><use transform="matrix(0.05,0,0,0.05,39,0)" xlink:href="#u"/><use transform="matrix(0.05,0,0,0.05,44,0)" xlink:href="#v"/><use transform="matrix(0.05,0,0,0.05,47.95,0)" xlink:href="#w"/><use transform="matrix(0.05,0,0,0.05,57.95,0)" xlink:href="#x"/><use transform="matrix(0.05,0,0,0.05,67.95,0)" xlink:href="#A"/><use transform="matrix(0.05,0,0,0.05,77.95,0)" xlink:href="#v"/><use transform="matrix(0.05,0,0,0.05,81.9,0)" xlink:href="#C"/></g><g id="f"><use transform="matrix(0.05,0,0,0.05,0,0)" xlink:href="#y"/><use transform="matrix(0.05,0,0,0.05,10,0)" xlink:href="#x"/><use transform="matrix(0.05,0,0,0.05,20,0)" xlink:href="#t"/><use transform="matrix(0.05,0,0,0.05,29,0)" xlink:href="#B"/><use transform="matrix(0.05,0,0,0.05,41.95,0)" xlink:href="#s"/><use transform="matrix(0.05,0,0,0.05,51.95,0)" xlink:href="#z"/></g><path fill="#333" d="M124 0L87-78 21 0h-35l86-98-46-92h33l34 74 61-74h37l-83 92 50 98h-34" id="E"/><g id="g"><use transform="matrix(0.05,0,0,0.05,0,0)" xlink:href="#u"/><use transform="matrix(0.05,0,0,0.05,5,0)" xlink:href="#s"/><use transform="matrix(0.05,0,0,0.05,15,0)" xlink:href="#E"/><use transform="matrix(0.05,0,0,0.05,24,0)" xlink:href="#u"/></g><path fill="#333" d="M67-162c32-53 139-36 121 50C175-51 163 2 97 4 68 4 52-11 42-31 38 6 28 39 22 75H-9l50-265h29c-1 10 0 20-3 28zm89 36c0-26-10-43-35-43-54 0-67 50-69 103-1 29 14 45 42 46 53 0 62-58 62-106" id="F"/><g id="h"><use transform="matrix(0.05,0,0,0.05,0,0)" xlink:href="#F"/><use transform="matrix(0.05,0,0,0.05,10,0)" xlink:href="#y"/><use transform="matrix(0.05,0,0,0.05,20,0)" xlink:href="#u"/><use transform="matrix(0.05,0,0,0.05,25,0)" xlink:href="#v"/><use transform="matrix(0.05,0,0,0.05,28.950000000000003,0)" xlink:href="#s"/><use transform="matrix(0.05,0,0,0.05,38.95,0)" xlink:href="#x"/><use transform="matrix(0.05,0,0,0.05,48.95,0)" xlink:href="#u"/><use transform="matrix(0.05,0,0,0.05,53.95,0)" xlink:href="#A"/><use transform="matrix(0.05,0,0,0.05,63.95,0)" xlink:href="#q"/><use transform="matrix(0.05,0,0,0.05,73.95,0)" xlink:href="#r"/><use transform="matrix(0.05,0,0,0.05,83.95,0)" xlink:href="#s"/><use transform="matrix(0.05,0,0,0.05,93.95,0)" xlink:href="#t"/><use transform="matrix(0.05,0,0,0.05,102.95,0)" xlink:href="#u"/><use transform="matrix(0.05,0,0,0.05,107.95,0)" xlink:href="#v"/><use transform="matrix(0.05,0,0,0.05,111.9,0)" xlink:href="#w"/><use transform="matrix(0.05,0,0,0.05,121.9,0)" xlink:href="#x"/><use transform="matrix(0.05,0,0,0.05,131.9,0)" xlink:href="#x"/><use transform="matrix(0.05,0,0,0.05,141.9,0)" xlink:href="#y"/><use transform="matrix(0.05,0,0,0.05,151.9,0)" xlink:href="#v"/><use transform="matrix(0.05,0,0,0.05,155.85,0)" xlink:href="#z"/><use transform="matrix(0.05,0,0,0.05,161.79999999999998,0)" xlink:href="#s"/></g><g id="i"><use transform="matrix(0.05,0,0,0.05,0,0)" xlink:href="#F"/><use transform="matrix(0.05,0,0,0.05,10,0)" xlink:href="#y"/><use transform="matrix(0.05,0,0,0.05,20,0)" xlink:href="#u"/><use transform="matrix(0.05,0,0,0.05,25,0)" xlink:href="#v"/><use transform="matrix(0.05,0,0,0.05,28.950000000000003,0)" xlink:href="#s"/><use transform="matrix(0.05,0,0,0.05,38.95,0)" xlink:href="#x"/><use transform="matrix(0.05,0,0,0.05,48.95,0)" xlink:href="#u"/><use transform="matrix(0.05,0,0,0.05,53.95,0)" xlink:href="#A"/><use transform="matrix(0.05,0,0,0.05,63.95,0)" xlink:href="#v"/><use transform="matrix(0.05,0,0,0.05,67.9,0)" xlink:href="#C"/></g><path d="M44-68c0 29 11 47 38 47 30 0 42-19 51-41l28 9C148-21 126 4 82 4 31 4 10-29 12-85c3-77 74-140 146-93 12 8 15 23 18 40l-31 5c-1-22-13-36-36-36-52 0-65 49-65 101" id="G"/><path d="M66-151c12-25 30-51 66-40l-6 26C45-176 58-65 38 0H6l36-190h30" id="H"/><path d="M111-194c62-3 86 47 72 106H45c-7 38 6 69 45 68 27-1 43-14 53-32l24 11C152-15 129 4 87 4 38 3 12-23 12-71c0-70 32-119 99-123zm44 81c14-66-71-72-95-28-4 8-8 17-11 28h106" id="I"/><path d="M165-48c-4 18 1 34 23 27l-3 20c-29 8-62 0-52-35h-2C116-14 99 4 63 4 30 4 8-16 8-49c0-68 71-67 138-67 10-26 0-56-31-54-26 1-42 9-47 31l-32-5c8-67 160-71 144 15-5 28-9 54-15 81zM42-50c3 52 80 24 89-6 7-12 7-24 11-38-47 1-103-4-100 44" id="J"/><path d="M51-54c-9 22 5 41 31 30L79-1C43 14 10-4 19-52l22-115H19l5-23h22l19-43h21l-9 43h35l-4 23H73" id="K"/><path d="M133-28C103 26-5 8 13-77c13-62 24-115 90-117 29-1 46 15 56 35l19-102h32L160 0h-30zM45-64c-2 27 10 43 35 43 54-1 69-50 69-103 0-29-15-46-42-46-53-1-58 58-62 106" id="L"/><path d="M-28 44V31h207v13H-28" id="M"/><g id="j"><use transform="matrix(0.05,0,0,0.05,0,0)" xlink:href="#G"/><use transform="matrix(0.05,0,0,0.05,9,0)" xlink:href="#H"/><use transform="matrix(0.05,0,0,0.05,14.949999999999998,0)" xlink:href="#I"/><use transform="matrix(0.05,0,0,0.05,24.95,0)" xlink:href="#J"/><use transform="matrix(0.05,0,0,0.05,34.95,0)" xlink:href="#K"/><use transform="matrix(0.05,0,0,0.05,39.95,0)" xlink:href="#I"/><use transform="matrix(0.05,0,0,0.05,49.95,0)" xlink:href="#L"/><use transform="matrix(0.05,0,0,0.05,59.95,0)" xlink:href="#M"/><use transform="matrix(0.05,0,0,0.05,69.95,0)" xlink:href="#J"/><use transform="matrix(0.05,0,0,0.05,79.95,0)" xlink:href="#K"/></g><path d="M124 0L87-78 21 0h-35l86-98-46-92h33l34 74 61-74h37l-83 92 50 98h-34" id="N"/><g id="k"><use transform="matrix(0.05,0,0,0.05,0,0)" xlink:href="#K"/><use transform="matrix(0.05,0,0,0.05,5,0)" xlink:href="#I"/><use transform="matrix(0.05,0,0,0.05,15,0)" xlink:href="#N"/><use transform="matrix(0.05,0,0,0.05,24,0)" xlink:href="#K"/></g><path d="M67 3c-93-2-31-127-26-193h32L48-50c-3 39 53 32 70 12 30-34 30-101 43-152h32L157 0h-30c1-10 6-24 4-33-14 20-29 37-64 36" id="O"/><path d="M67-162c32-53 139-36 121 50C175-51 163 2 97 4 68 4 52-11 42-31 38 6 28 39 22 75H-9l50-265h29c-1 10 0 20-3 28zm89 36c0-26-10-43-35-43-54 0-67 50-69 103-1 29 14 45 42 46 53 0 62-58 62-106" id="P"/><g id="l"><use transform="matrix(0.05,0,0,0.05,0,0)" xlink:href="#O"/><use transform="matrix(0.05,0,0,0.05,10,0)" xlink:href="#P"/><use transform="matrix(0.05,0,0,0.05,20,0)" xlink:href="#L"/><use transform="matrix(0.05,0,0,0.05,30,0)" xlink:href="#J"/><use transform="matrix(0.05,0,0,0.05,40,0)" xlink:href="#K"/><use transform="matrix(0.05,0,0,0.05,45,0)" xlink:href="#I"/><use transform="matrix(0.05,0,0,0.05,55,0)" xlink:href="#L"/><use transform="matrix(0.05,0,0,0.05,65,0)" xlink:href="#M"/><use transform="matrix(0.05,0,0,0.05,75,0)" xlink:href="#J"/><use transform="matrix(0.05,0,0,0.05,85,0)" xlink:href="#K"/></g><path d="M30-147c31-64 166-65 159 27C183-49 158 1 86 4 9 8 1-88 30-147zM88-20c53 0 68-48 68-100 0-31-11-51-44-50-52 1-68 46-68 97 0 32 13 53 44 53" id="Q"/><path d="M248-111c6-24 9-61-24-58-72 9-57 108-77 169h-31l26-142c3-37-50-30-64-10C52-115 50-51 37 0H6l36-190h30c-1 10-6 24-4 32 13-43 101-52 105 5 13-22 29-41 61-41 90 0 28 129 23 194h-31" id="R"/><path d="M6 0l50-261h32L37 0H6" id="S"/><g id="m"><use transform="matrix(0.05,0,0,0.05,0,0)" xlink:href="#G"/><use transform="matrix(0.05,0,0,0.05,9,0)" xlink:href="#Q"/><use transform="matrix(0.05,0,0,0.05,19,0)" xlink:href="#R"/><use transform="matrix(0.05,0,0,0.05,33.95,0)" xlink:href="#P"/><use transform="matrix(0.05,0,0,0.05,43.95,0)" xlink:href="#S"/><use transform="matrix(0.05,0,0,0.05,47.900000000000006,0)" xlink:href="#I"/><use transform="matrix(0.05,0,0,0.05,57.900000000000006,0)" xlink:href="#K"/><use transform="matrix(0.05,0,0,0.05,62.900000000000006,0)" xlink:href="#I"/><use transform="matrix(0.05,0,0,0.05,72.9,0)" xlink:href="#L"/><use transform="matrix(0.05,0,0,0.05,82.9,0)" xlink:href="#M"/><use transform="matrix(0.05,0,0,0.05,92.9,0)" xlink:href="#J"/><use transform="matrix(0.05,0,0,0.05,102.9,0)" xlink:href="#K"/></g><g id="n"><use transform="matrix(0.05,0,0,0.05,0,0)" xlink:href="#q"/><use transform="matrix(0.05,0,0,0.05,10,0)" xlink:href="#r"/><use transform="matrix(0.05,0,0,0.05,20,0)" xlink:href="#s"/><use transform="matrix(0.05,0,0,0.05,30,0)" xlink:href="#t"/><use transform="matrix(0.05,0,0,0.05,39,0)" xlink:href="#u"/><use transform="matrix(0.05,0,0,0.05,44,0)" xlink:href="#v"/><use transform="matrix(0.05,0,0,0.05,47.95,0)" xlink:href="#w"/><use transform="matrix(0.05,0,0,0.05,57.95,0)" xlink:href="#x"/><use transform="matrix(0.05,0,0,0.05,67.95,0)" xlink:href="#x"/><use transform="matrix(0.05,0,0,0.05,77.95,0)" xlink:href="#y"/><use transform="matrix(0.05,0,0,0.05,87.95,0)" xlink:href="#v"/><use transform="matrix(0.05,0,0,0.05,91.9,0)" xlink:href="#z"/><use transform="matrix(0.05,0,0,0.05,97.85000000000001,0)" xlink:href="#s"/><use transform="matrix(0.05,0,0,0.05,107.85000000000001,0)" xlink:href="#A"/><use transform="matrix(0.05,0,0,0.05,117.85000000000001,0)" xlink:href="#q"/><use transform="matrix(0.05,0,0,0.05,127.85000000000001,0)" xlink:href="#r"/><use transform="matrix(0.05,0,0,0.05,137.85000000000002,0)" xlink:href="#s"/><use transform="matrix(0.05,0,0,0.05,147.85000000000002,0)" xlink:href="#t"/><use transform="matrix(0.05,0,0,0.05,156.85000000000002,0)" xlink:href="#u"/><use transform="matrix(0.05,0,0,0.05,161.85000000000002,0)" xlink:href="#v"/><use transform="matrix(0.05,0,0,0.05,165.8,0)" xlink:href="#w"/><use transform="matrix(0.05,0,0,0.05,175.8,0)" xlink:href="#x"/></g><path fill="#333" d="M44-68c0 29 11 47 38 47 30 0 42-19 51-41l28 9C148-21 126 4 82 4 31 4 10-29 12-85c3-77 74-140 146-93 12 8 15 23 18 40l-31 5c-1-22-13-36-36-36-52 0-65 49-65 101" id="T"/><g id="o"><use transform="matrix(0.05,0,0,0.05,0,0)" xlink:href="#C"/><use transform="matrix(0.05,0,0,0.05,10,0)" xlink:href="#s"/><use transform="matrix(0.05,0,0,0.05,20,0)" xlink:href="#t"/><use transform="matrix(0.05,0,0,0.05,29,0)" xlink:href="#T"/><use transform="matrix(0.05,0,0,0.05,38,0)" xlink:href="#z"/><use transform="matrix(0.05,0,0,0.05,43.95,0)" xlink:href="#v"/><use transform="matrix(0.05,0,0,0.05,47.900000000000006,0)" xlink:href="#F"/><use transform="matrix(0.05,0,0,0.05,57.900000000000006,0)" xlink:href="#u"/><use transform="matrix(0.05,0,0,0.05,62.900000000000006,0)" xlink:href="#v"/><use transform="matrix(0.05,0,0,0.05,66.85000000000001,0)" xlink:href="#w"/><use transform="matrix(0.05,0,0,0.05,76.85000000000001,0)" xlink:href="#x"/></g><path fill="#333" d="M67-158c15-20 31-36 64-36 94 0 33 127 27 194h-32l25-140c3-38-53-32-70-12C52-117 51-51 37 0H6l51-261h31" id="U"/><g id="p"><use transform="matrix(0.05,0,0,0.05,0,0)" xlink:href="#t"/><use transform="matrix(0.05,0,0,0.05,9,0)" xlink:href="#U"/><use transform="matrix(0.05,0,0,0.05,19,0)" xlink:href="#w"/><use transform="matrix(0.05,0,0,0.05,29,0)" xlink:href="#z"/><use transform="matrix(0.05,0,0,0.05,34.95,0)" xlink:href="#u"/><use transform="matrix(0.05,0,0,0.05,39.95,0)" xlink:href="#A"/><use transform="matrix(0.05,0,0,0.05,49.95,0)" xlink:href="#T"/><use transform="matrix(0.05,0,0,0.05,58.95,0)" xlink:href="#w"/><use transform="matrix(0.05,0,0,0.05,68.95,0)" xlink:href="#C"/><use transform="matrix(0.05,0,0,0.05,78.95,0)" xlink:href="#s"/></g></defs></g></svg>